<?xml version="1.0" encoding="utf-8"?>
<svg xmlns="http://www.w3.org/2000/svg" viewBox="0 0 24 24" fill="#424242"><path d="M 6 1 L 6 3 L 5 3 C 3.9 3 3 3.9 3 5 L 3 19 C 3 20.1 3.9 21 5 21 L 13.171875 21 L 15.171875 19 L 5 19 L 5 8 L 19 8 L 19 15.171875 L 21 13.171875 L 21 5 C 21 3.9 20.1 3 19 3 L 18 3 L 18 1 L 16 1 L 16 3 L 8 3 L 8 1 L 6 1 z M 22.207031 15 C 22.079156 15 21.951016 15.048984 21.853516 15.146484 L 20.853516 16.146484 L 22.853516 18.146484 L 23.853516 17.146484 C 24.048516 16.951484 24.048516 16.634453 23.853516 16.439453 L 22.560547 15.146484 C 22.462547 15.048984 22.334906 15 22.207031 15 z M 20.146484 16.853516 L 15 22 L 15 24 L 17 24 L 22.146484 18.853516 L 20.146484 16.853516 z"/></svg>
